{"glyphs":{"0":{"ha":926,"x_min":0,"x_max":0,"o":"m 463 -19 b 74 504 219 -19 74 173 b 463 1024 74 834 220 1024 b 852 504 706 1024 852 834 b 463 -19 852 173 707 -20 m 463 135 b 668 504 589 135 668 261 b 463 872 667 745 589 872 b 259 504 338 872 259 745 b 463 135 258 261 337 135 "},"1":{"ha":668,"x_min":0,"x_max":0,"o":"m 501 0 l 318 0 l 318 832 l 312 832 l 75 681 l 75 849 l 327 1010 l 501 1010 "},"2":{"ha":863,"x_min":0,"x_max":0,"o":"m 90 132 l 440 476 b 591 722 540 577 591 637 b 424 875 591 817 520 875 b 258 708 323 875 258 811 l 84 708 b 426 1024 84 900 226 1024 b 767 731 629 1024 767 900 b 516 337 767 617 713 525 l 342 160 l 342 153 l 782 153 l 782 0 l 90 0 "},"3":{"ha":905,"x_min":0,"x_max":0,"o":"m 452 -14 b 82 275 239 -14 87 104 l 267 275 b 452 140 272 192 350 140 b 637 290 560 140 637 201 b 434 445 637 381 561 445 l 344 445 l 344 586 l 434 586 b 611 733 538 586 611 645 b 454 875 611 818 548 875 b 279 738 361 875 282 823 l 103 738 b 455 1024 107 907 259 1024 b 788 744 657 1024 788 898 b 605 526 788 631 715 549 l 605 518 b 825 281 747 498 826 407 b 452 -14 826 110 668 -14 "},"4":{"ha":925,"x_min":0,"x_max":0,"o":"m 72 333 l 500 1010 l 728 1010 l 728 338 l 857 338 l 857 187 l 728 187 l 728 0 l 553 0 l 553 187 l 72 187 m 555 803 l 547 803 l 259 346 l 259 338 l 555 338 "},"5":{"ha":878,"x_min":0,"x_max":0,"o":"m 441 -14 b 92 275 244 -14 97 107 l 270 275 b 441 134 276 192 350 134 b 626 327 549 134 627 215 b 436 524 627 442 547 524 b 277 462 375 525 311 500 l 112 489 l 165 1010 l 751 1010 l 751 857 l 316 857 l 287 589 l 293 589 b 485 666 330 634 403 666 b 803 332 668 666 803 526 b 441 -14 803 131 654 -14 "},"6":{"ha":900,"x_min":0,"x_max":0,"o":"m 460 -14 b 74 476 266 -13 73 106 b 470 1024 74 822 227 1024 b 814 738 661 1024 793 901 l 634 738 b 470 866 616 815 557 866 b 252 524 330 866 252 736 l 258 524 b 511 663 307 611 402 663 b 824 334 688 663 824 525 b 460 -14 824 135 678 -15 m 459 134 b 646 330 566 134 647 220 b 461 524 647 439 568 524 b 271 329 354 524 272 435 b 459 134 272 223 351 134 "},"7":{"ha":815,"x_min":0,"x_max":0,"o":"m 556 850 l 556 857 l 58 857 l 58 1010 l 746 1010 l 746 854 l 317 0 l 127 0 "},"8":{"ha":897,"x_min":0,"x_max":0,"o":"m 449 -14 b 73 271 228 -14 73 107 b 284 522 73 397 165 503 l 284 529 b 110 753 180 552 110 644 b 449 1024 110 909 253 1024 b 787 753 643 1024 786 908 b 613 529 786 644 715 552 l 613 522 b 824 271 730 503 824 397 b 449 -14 824 107 667 -14 m 449 127 b 636 284 562 127 635 190 b 449 449 635 380 556 449 b 261 284 340 449 260 380 b 449 127 260 190 334 127 m 449 587 b 609 736 541 587 608 648 b 449 881 608 823 543 881 b 289 736 353 881 288 823 b 449 587 288 648 355 587 "},"9":{"ha":900,"x_min":0,"x_max":0,"o":"m 440 1024 b 826 536 634 1023 826 904 b 430 -14 827 188 672 -14 b 86 275 239 -14 107 108 l 266 275 b 430 145 284 195 343 145 b 649 489 570 145 648 273 l 642 489 b 389 350 593 402 498 350 b 76 678 212 350 76 487 b 440 1024 76 875 221 1025 m 441 876 b 254 682 334 876 254 790 b 439 489 254 574 331 489 b 628 683 545 489 629 579 b 441 876 628 786 549 876 "},"A":{"ha":1005,"x_min":0,"x_max":0,"o":"m 34 0 l 390 1010 l 616 1010 l 972 0 l 776 0 l 692 249 l 313 249 l 229 0 m 643 396 l 507 803 l 499 803 l 362 396 "},"Ä":{"ha":1005,"x_min":0,"x_max":0,"o":"m 34 0 l 390 1010 l 616 1010 l 972 0 l 776 0 l 692 249 l 313 249 l 229 0 m 643 396 l 507 803 l 499 803 l 362 396 m 355 1122 b 259 1214 303 1122 259 1164 b 355 1308 259 1267 303 1308 b 450 1214 408 1308 450 1267 b 355 1122 450 1164 408 1122 m 651 1122 b 555 1214 599 1122 555 1164 b 651 1308 555 1267 599 1308 b 746 1214 704 1308 746 1267 b 651 1122 746 1164 704 1122 "},"B":{"ha":913,"x_min":0,"x_max":0,"o":"m 100 1010 l 486 1010 b 814 748 705 1010 814 899 b 637 533 814 625 736 556 l 637 523 b 853 275 745 518 853 428 b 509 0 853 118 740 0 l 100 0 m 479 153 b 667 290 612 153 667 209 b 484 449 667 380 597 449 l 283 449 l 283 153 m 464 581 b 631 725 559 581 631 636 b 468 859 631 802 575 859 l 283 859 l 283 581 "},"C":{"ha":1033,"x_min":0,"x_max":0,"o":"m 780 669 b 540 860 759 790 662 860 b 258 505 374 860 258 733 b 539 150 258 273 375 150 b 780 335 660 150 757 217 l 964 334 b 537 -14 936 142 777 -14 b 74 505 270 -14 74 179 b 537 1024 74 832 273 1024 b 964 669 761 1024 933 894 "},"D":{"ha":1006,"x_min":0,"x_max":0,"o":"m 100 0 l 100 1010 l 449 1010 b 932 506 750 1010 932 821 b 442 0 932 190 750 0 m 433 158 b 751 506 644 158 751 274 b 438 852 751 737 644 852 l 283 852 l 283 158 "},"E":{"ha":844,"x_min":0,"x_max":0,"o":"m 100 1010 l 757 1010 l 757 857 l 283 857 l 283 582 l 723 582 l 723 429 l 283 429 l 283 153 l 761 153 l 761 0 l 100 0 "},"F":{"ha":813,"x_min":0,"x_max":0,"o":"m 100 1010 l 747 1010 l 747 857 l 283 857 l 283 582 l 702 582 l 702 429 l 283 429 l 283 0 l 100 0 "},"G":{"ha":1049,"x_min":0,"x_max":0,"o":"m 776 688 b 539 860 744 795 661 860 b 258 506 376 860 258 733 b 543 150 258 277 374 150 b 794 386 695 150 791 242 l 561 386 l 561 529 l 971 529 l 971 407 b 542 -14 971 147 792 -14 b 74 504 263 -14 74 184 b 537 1024 74 830 272 1024 b 963 688 760 1024 932 886 l 776 688 "},"H":{"ha":1033,"x_min":0,"x_max":0,"o":"m 100 1010 l 283 1010 l 283 582 l 751 582 l 751 1010 l 934 1010 l 934 0 l 751 0 l 751 429 l 283 429 l 283 0 l 100 0 "},"I":{"ha":382,"x_min":0,"x_max":0,"o":"m 283 0 l 100 0 l 100 1010 l 283 1010 "},"J":{"ha":779,"x_min":0,"x_max":0,"o":"m 680 1010 l 680 300 b 354 -14 679 105 548 -14 b 40 268 177 -14 40 82 l 222 268 b 361 137 224 186 279 137 b 498 300 448 137 498 193 l 498 1010 "},"K":{"ha":940,"x_min":0,"x_max":0,"o":"m 100 1010 l 283 1010 l 283 546 l 295 546 l 689 1010 l 912 1010 l 522 557 l 916 0 l 696 0 l 395 433 l 283 301 l 283 0 l 100 0 "},"L":{"ha":786,"x_min":0,"x_max":0,"o":"m 100 1010 l 283 1010 l 283 153 l 727 153 l 727 0 l 100 0 "},"M":{"ha":1259,"x_min":0,"x_max":0,"o":"m 324 1010 l 623 278 l 635 278 l 935 1010 l 1159 1010 l 1159 0 l 983 0 l 983 694 l 974 694 l 695 3 l 564 3 l 285 695 l 275 695 l 275 0 l 100 0 l 100 1010 "},"N":{"ha":1029,"x_min":0,"x_max":0,"o":"m 930 0 l 767 0 l 291 688 l 283 688 l 283 0 l 100 0 l 100 1010 l 263 1010 l 739 322 l 748 322 l 748 1010 l 930 1010 "},"O":{"ha":1076,"x_min":0,"x_max":0,"o":"m 1002 505 b 538 -14 1002 179 803 -14 b 74 505 273 -14 74 179 b 538 1024 74 832 273 1024 b 1002 505 803 1024 1002 832 m 818 505 b 538 860 818 735 703 860 b 258 505 374 860 258 735 b 538 150 258 275 374 150 b 818 505 703 150 818 275 "},"Ö":{"ha":1076,"x_min":0,"x_max":0,"o":"m 1002 505 b 538 -14 1002 179 803 -14 b 74 505 273 -14 74 179 b 538 1024 74 832 273 1024 b 1002 505 803 1024 1002 832 m 818 505 b 538 860 818 735 703 860 b 258 505 374 860 258 735 b 538 150 258 275 374 150 b 818 505 703 150 818 275 m 391 1122 b 295 1214 339 1122 295 1164 b 391 1308 295 1267 339 1308 b 485 1214 444 1308 485 1267 b 391 1122 485 1164 444 1122 m 687 1122 b 591 1214 635 1122 591 1164 b 687 1308 591 1267 635 1308 b 781 1214 740 1308 781 1267 b 687 1122 781 1164 740 1122 "},"P":{"ha":894,"x_min":0,"x_max":0,"o":"m 100 1010 l 478 1010 b 835 676 711 1010 835 869 b 476 341 835 481 709 341 l 283 341 l 283 0 l 100 0 m 451 492 b 648 676 587 492 648 568 b 450 857 648 783 587 857 l 283 857 l 283 492 "},"Q":{"ha":1077,"x_min":0,"x_max":0,"o":"m 1002 505 b 838 93 1002 322 940 182 l 978 -87 l 800 -87 l 717 19 b 538 -14 662 -2 602 -14 b 74 505 273 -14 74 179 b 538 1024 74 832 273 1024 b 1002 505 803 1024 1002 832 m 642 339 l 727 228 b 818 505 785 288 818 381 b 538 860 818 735 703 860 b 258 505 374 860 258 735 b 538 150 258 275 374 150 b 613 160 564 150 589 153 l 476 339 "},"R":{"ha":904,"x_min":0,"x_max":0,"o":"m 100 1010 l 478 1010 b 835 687 710 1010 835 880 b 653 400 835 550 772 448 l 872 0 l 667 0 l 469 370 l 283 370 l 283 0 l 100 0 m 451 522 b 648 687 587 522 648 580 b 450 857 648 795 587 857 l 283 857 l 283 522 "},"S":{"ha":902,"x_min":0,"x_max":0,"o":"m 649 732 b 458 869 639 818 567 869 b 275 737 344 869 276 813 b 447 598 274 653 364 618 l 542 575 b 838 284 693 539 838 459 b 455 -15 838 106 697 -15 b 63 298 220 -15 71 98 l 243 298 b 454 141 251 192 339 141 b 655 285 573 141 655 199 b 474 425 655 363 583 398 l 359 455 b 90 726 193 498 90 581 b 461 1024 89 905 249 1024 b 825 732 676 1024 821 903 l 649 732 "},"T":{"ha":916,"x_min":0,"x_max":0,"o":"m 55 1010 l 861 1010 l 861 857 l 549 857 l 549 0 l 367 0 l 367 857 l 55 857 "},"U":{"ha":1019,"x_min":0,"x_max":0,"o":"m 919 1010 l 919 350 b 509 -15 919 133 756 -15 b 100 350 262 -15 100 133 l 100 1010 l 283 1010 l 283 365 b 509 148 283 239 370 148 b 736 365 648 148 736 239 l 736 1010 "},"Ü":{"ha":1019,"x_min":0,"x_max":0,"o":"m 919 1010 l 919 350 b 509 -15 919 133 756 -15 b 100 350 262 -15 100 133 l 100 1010 l 283 1010 l 283 365 b 509 148 283 239 370 148 b 736 365 648 148 736 239 l 736 1010 m 362 1122 b 266 1214 310 1122 266 1164 b 362 1308 266 1267 310 1308 b 457 1214 415 1308 457 1267 b 362 1122 457 1164 415 1122 m 658 1122 b 562 1214 606 1122 562 1164 b 658 1308 562 1267 606 1308 b 753 1214 711 1308 753 1267 b 658 1122 753 1164 711 1122 "},"V":{"ha":1005,"x_min":0,"x_max":0,"o":"m 498 215 l 508 215 l 770 1010 l 972 1010 l 616 0 l 390 0 l 34 1010 l 235 1010 "},"W":{"ha":1398,"x_min":0,"x_max":0,"o":"m 27 1010 l 224 1010 l 406 268 l 415 268 l 610 1010 l 789 1010 l 983 267 l 992 267 l 1174 1010 l 1371 1010 l 1086 0 l 906 0 l 703 709 l 695 709 l 493 0 l 312 0 "},"X":{"ha":959,"x_min":0,"x_max":0,"o":"m 475 640 l 483 640 l 706 1010 l 915 1010 l 604 505 l 920 0 l 708 0 l 483 367 l 475 367 l 250 0 l 39 0 l 358 505 l 43 1010 l 253 1010 "},"Y":{"ha":979,"x_min":0,"x_max":0,"o":"m 237 1010 l 484 563 l 494 563 l 741 1010 l 948 1010 l 581 377 l 581 0 l 398 0 l 398 377 l 31 1010 "},"Z":{"ha":907,"x_min":0,"x_max":0,"o":"m 81 114 l 599 857 l 78 857 l 78 1010 l 826 1010 l 826 896 l 308 153 l 829 153 l 829 0 l 81 0 "},"a":{"ha":798,"x_min":0,"x_max":0,"o":"m 310 -15 b 56 213 165 -15 56 64 b 344 443 56 383 197 427 b 531 511 477 457 531 460 l 531 514 b 403 631 531 588 486 631 b 248 535 316 631 265 586 l 81 558 b 402 767 120 696 243 767 b 710 507 546 767 710 707 l 710 0 l 538 0 l 538 104 l 532 104 b 310 -15 500 40 429 -15 m 356 116 b 532 272 464 116 532 187 l 532 361 b 368 324 509 342 415 330 b 228 216 288 313 228 284 b 356 116 228 150 282 116 "},"ä":{"ha":798,"x_min":0,"x_max":0,"o":"m 310 -15 b 56 213 165 -15 56 64 b 344 443 56 383 197 427 b 531 511 477 457 531 460 l 531 514 b 403 631 531 588 486 631 b 248 535 316 631 265 586 l 81 558 b 402 767 120 696 243 767 b 710 507 546 767 710 707 l 710 0 l 538 0 l 538 104 l 532 104 b 310 -15 500 40 429 -15 m 356 116 b 532 272 464 116 532 187 l 532 361 b 368 324 509 342 415 330 b 228 216 288 313 228 284 b 356 116 228 150 282 116 m 262 869 b 167 962 211 869 167 912 b 262 1055 167 1015 211 1055 b 357 962 316 1055 357 1015 b 262 869 357 912 316 869 m 558 869 b 463 962 507 869 463 912 b 558 1055 463 1015 507 1055 b 653 962 612 1055 653 1015 b 558 869 653 912 612 869 "},"b":{"ha":875,"x_min":0,"x_max":0,"o":"m 100 1010 l 278 1010 l 278 632 l 286 632 b 502 767 313 687 368 767 b 815 378 677 767 815 630 b 503 -13 815 128 681 -13 b 286 119 372 -13 314 64 l 275 119 l 275 0 l 100 0 m 275 379 b 453 133 275 232 339 133 b 633 379 571 133 633 237 b 453 621 633 520 572 621 b 275 379 338 621 275 526 "},"c":{"ha":802,"x_min":0,"x_max":0,"o":"m 422 -15 b 59 376 196 -15 59 146 b 421 767 59 607 199 767 b 747 495 606 767 734 659 l 576 495 b 424 623 562 568 509 623 b 240 379 314 623 240 532 b 424 131 240 224 312 131 b 576 259 502 131 561 178 l 747 259 b 422 -15 734 98 613 -15 "},"ç":{"ha":802,"x_min":0,"x_max":0,"o":"m 460 -38 b 571 -157 521 -47 571 -85 b 328 -312 571 -250 484 -312 l 326 -224 b 450 -161 401 -224 449 -205 b 350 -95 451 -119 420 -103 l 367 -11 b 59 376 174 12 59 166 b 421 767 59 607 199 767 b 747 495 606 767 734 659 l 576 495 b 424 623 562 568 509 623 b 240 379 314 623 240 532 b 424 131 240 224 312 131 b 576 259 502 131 561 178 l 747 259 b 465 -13 735 110 630 2 "},"d":{"ha":875,"x_min":0,"x_max":0,"o":"m 373 -13 b 61 378 194 -13 61 128 b 373 767 61 630 198 767 b 590 632 507 767 563 687 l 597 632 l 597 1010 l 776 1010 l 776 0 l 601 0 l 601 119 l 590 119 b 373 -13 562 64 503 -13 m 423 133 b 601 379 537 133 601 232 b 423 621 601 526 538 621 b 243 379 304 621 243 520 b 423 133 243 237 305 133 "},"e":{"ha":823,"x_min":0,"x_max":0,"o":"m 427 -15 b 59 374 199 -15 59 137 b 418 767 59 608 201 767 b 764 385 604 767 764 651 l 764 330 l 236 330 b 430 124 238 200 314 124 b 590 222 507 124 566 158 l 757 203 b 427 -15 725 72 604 -15 m 593 450 b 420 628 592 553 523 628 b 237 450 314 628 242 547 "},"f":{"ha":524,"x_min":0,"x_max":0,"o":"m 475 619 l 318 619 l 318 0 l 140 0 l 140 619 l 28 619 l 28 758 l 140 758 l 140 829 b 376 1057 140 982 245 1057 b 512 1037 438 1057 489 1045 l 476 899 b 409 909 461 903 437 909 b 318 817 343 909 318 876 l 318 758 l 475 758 "},"g":{"ha":869,"x_min":0,"x_max":0,"o":"m 421 -300 b 87 -109 228 -300 119 -215 l 248 -70 b 424 -165 269 -114 317 -165 b 600 -7 526 -165 600 -119 l 600 136 l 591 136 b 373 11 563 80 503 11 b 61 381 198 11 61 134 b 373 767 61 630 198 767 b 591 632 507 767 564 687 l 601 632 l 601 758 l 777 758 l 777 -12 b 421 -300 777 -206 626 -300 m 423 151 b 601 382 537 151 601 238 b 423 621 601 526 538 621 b 243 382 304 621 243 520 b 423 151 243 243 305 151 "},"h":{"ha":851,"x_min":0,"x_max":0,"o":"m 270 0 l 92 0 l 92 1010 l 266 1010 l 266 629 l 275 629 b 501 767 310 715 384 767 b 762 482 658 767 762 665 l 762 0 l 583 0 l 583 455 b 434 617 583 557 528 617 b 270 444 338 617 270 553 "},"i":{"ha":362,"x_min":0,"x_max":0,"o":"m 92 758 l 270 758 l 270 0 l 92 0 m 182 865 b 78 962 124 865 78 908 b 182 1059 78 1016 124 1059 b 285 962 238 1059 285 1016 b 182 865 285 908 238 865 "},"j":{"ha":362,"x_min":0,"x_max":0,"o":"m 270 758 l 270 -43 b 7 -284 270 -207 174 -284 b -30 -283 -6 -284 -17 -284 l -30 -138 b -4 -139 -20 -138 -13 -139 b 92 -41 65 -139 92 -105 l 92 758 m 181 865 b 77 962 123 865 77 908 b 181 1059 77 1016 123 1059 b 284 962 237 1059 284 1016 b 181 865 284 908 237 865 "},"k":{"ha":790,"x_min":0,"x_max":0,"o":"m 92 1010 l 270 1010 l 270 453 l 283 453 l 555 758 l 763 758 l 470 431 l 781 0 l 567 0 l 335 324 l 270 254 l 270 0 l 92 0 "},"l":{"ha":362,"x_min":0,"x_max":0,"o":"m 270 0 l 92 0 l 92 1010 l 270 1010 "},"m":{"ha":1247,"x_min":0,"x_max":0,"o":"m 92 758 l 262 758 l 262 629 l 271 629 b 480 767 303 715 379 767 b 685 629 582 767 656 715 l 693 629 b 920 767 727 713 810 767 b 1157 509 1059 767 1157 678 l 1157 0 l 978 0 l 978 481 b 849 617 978 575 921 617 b 712 472 763 617 712 558 l 712 0 l 537 0 l 537 488 b 409 617 537 566 485 617 b 270 461 332 617 270 554 l 270 0 l 92 0 "},"n":{"ha":847,"x_min":0,"x_max":0,"o":"m 270 0 l 92 0 l 92 758 l 262 758 l 262 629 l 271 629 b 497 767 306 713 384 767 b 757 482 654 767 757 664 l 757 0 l 578 0 l 578 455 b 431 617 578 556 523 617 b 270 444 336 617 270 553 "},"o":{"ha":844,"x_min":0,"x_max":0,"o":"m 422 -15 b 59 376 200 -15 59 142 b 422 767 59 611 200 767 b 785 376 644 767 785 611 b 422 -15 785 142 644 -15 m 423 128 b 604 376 544 128 604 238 b 423 626 604 515 544 626 b 240 376 300 626 240 515 b 423 128 240 238 300 128 "},"ö":{"ha":844,"x_min":0,"x_max":0,"o":"m 422 -15 b 59 376 200 -15 59 142 b 422 767 59 611 200 767 b 785 376 644 767 785 611 b 422 -15 785 142 644 -15 m 423 128 b 604 376 544 128 604 238 b 423 626 604 515 544 626 b 240 376 300 626 240 515 b 423 128 240 238 300 128 m 275 869 b 179 962 223 869 179 912 b 275 1055 179 1015 223 1055 b 369 962 328 1055 369 1015 b 275 869 369 912 328 869 m 571 869 b 475 962 519 869 475 912 b 571 1055 475 1015 519 1055 b 665 962 624 1055 665 1015 b 571 869 665 912 624 869 "},"p":{"ha":868,"x_min":0,"x_max":0,"o":"m 92 758 l 267 758 l 267 632 l 278 632 b 494 767 305 687 361 767 b 807 378 669 767 807 630 b 495 -13 807 128 673 -13 b 278 119 364 -13 306 64 l 270 119 l 270 -284 l 92 -284 m 267 379 b 445 133 267 232 331 133 b 625 379 563 133 625 237 b 445 621 625 520 564 621 b 267 379 330 621 267 526 "},"q":{"ha":868,"x_min":0,"x_max":0,"o":"m 597 119 l 590 119 b 373 -13 562 64 503 -13 b 61 378 194 -13 61 128 b 373 767 61 630 198 767 b 590 632 507 767 563 687 l 601 632 l 601 758 l 776 758 l 776 -284 l 597 -284 m 423 133 b 601 379 537 133 601 232 b 423 621 601 526 538 621 b 243 379 304 621 243 520 b 423 133 243 237 305 133 "},"r":{"ha":551,"x_min":0,"x_max":0,"o":"m 92 758 l 265 758 l 265 631 l 273 631 b 460 768 300 719 373 768 b 524 763 479 768 508 766 l 524 599 b 441 610 509 604 471 610 b 270 445 343 610 270 542 l 270 0 l 92 0 "},"s":{"ha":763,"x_min":0,"x_max":0,"o":"m 528 540 b 388 634 514 589 471 634 b 257 547 314 634 257 599 b 364 460 257 504 288 477 l 494 432 b 707 227 637 401 706 335 b 383 -15 706 83 573 -15 b 58 207 197 -15 80 68 l 232 223 b 383 120 248 155 301 120 b 524 211 468 120 524 159 b 422 297 524 254 491 282 l 292 324 b 79 538 147 354 79 427 b 386 767 79 678 203 767 b 690 557 563 767 666 686 "},"t":{"ha":528,"x_min":0,"x_max":0,"o":"m 470 619 l 321 619 l 321 228 b 401 140 321 156 357 140 b 454 147 424 140 444 145 l 484 7 b 379 -10 465 1 430 -9 b 142 198 245 -14 141 56 l 142 619 l 35 619 l 35 758 l 142 758 l 142 939 l 321 939 l 321 758 l 470 758 "},"u":{"ha":845,"x_min":0,"x_max":0,"o":"m 575 758 l 753 758 l 753 0 l 580 0 l 580 135 l 572 135 b 344 -10 538 50 458 -10 b 92 275 195 -10 92 93 l 92 758 l 270 758 l 270 303 b 413 146 270 207 327 146 b 575 319 492 146 575 203 "},"ü":{"ha":845,"x_min":0,"x_max":0,"o":"m 575 758 l 753 758 l 753 0 l 580 0 l 580 135 l 572 135 b 344 -10 538 50 458 -10 b 92 275 195 -10 92 93 l 92 758 l 270 758 l 270 303 b 413 146 270 207 327 146 b 575 319 492 146 575 203 m 276 869 b 180 962 224 869 180 912 b 276 1055 180 1015 224 1055 b 370 962 329 1055 370 1015 b 276 869 370 912 329 869 m 572 869 b 476 962 520 869 476 912 b 572 1055 476 1015 520 1055 b 666 962 625 1055 666 1015 b 572 869 666 912 625 869 "},"v":{"ha":800,"x_min":0,"x_max":0,"o":"m 499 0 l 301 0 l 32 758 l 222 758 l 396 195 l 404 195 l 579 758 l 768 758 "},"w":{"ha":1163,"x_min":0,"x_max":0,"o":"m 34 758 l 216 758 l 349 225 l 356 225 l 492 758 l 672 758 l 808 228 l 816 228 l 947 758 l 1129 758 l 915 0 l 729 0 l 587 512 l 577 512 l 435 0 l 248 0 "},"x":{"ha":781,"x_min":0,"x_max":0,"o":"m 391 478 l 546 758 l 735 758 l 507 379 l 739 0 l 551 0 l 391 273 l 232 0 l 42 0 l 273 379 l 48 758 l 238 758 "},"y":{"ha":800,"x_min":0,"x_max":0,"o":"m 203 -284 b 86 -265 154 -284 110 -275 l 128 -126 b 291 -57 206 -149 258 -143 l 306 -16 l 32 758 l 221 758 l 396 185 l 403 185 l 579 758 l 768 758 l 465 -92 b 203 -284 422 -213 342 -284 "},"z":{"ha":780,"x_min":0,"x_max":0,"o":"m 82 113 l 472 603 l 472 610 l 95 610 l 95 758 l 691 758 l 691 636 l 319 154 l 319 148 l 704 148 l 704 0 l 82 0 "},"$":{"ha":902,"x_min":0,"x_max":0,"o":"m 415 -14 b 63 298 203 -2 70 109 l 243 298 b 415 143 250 205 320 153 l 415 440 l 359 455 b 90 726 193 498 90 581 b 415 1022 89 892 226 1006 l 415 1136 l 496 1136 l 496 1023 b 825 732 691 1010 821 894 l 649 732 b 496 867 640 808 584 856 l 496 586 l 542 575 b 838 284 693 539 838 459 b 496 -14 838 116 713 -1 l 496 -126 l 415 -126 m 496 144 b 655 285 592 156 655 210 b 496 419 655 358 593 393 l 496 144 m 415 866 b 275 737 327 854 276 803 b 415 607 274 664 343 628 "},"£":{"ha":914,"x_min":0,"x_max":0,"o":"m 96 0 l 96 153 l 151 153 b 209 287 200 160 211 233 l 205 399 l 92 399 l 92 548 l 200 548 l 194 718 b 506 1024 187 918 331 1024 b 812 729 705 1024 830 893 l 641 744 b 510 873 647 834 581 873 b 373 718 437 873 372 824 l 379 548 l 607 548 l 607 399 l 385 399 l 389 295 b 348 153 391 237 379 190 l 808 153 l 808 0 "},"€":{"ha":943,"x_min":0,"x_max":0,"o":"m 693 554 l 348 554 b 346 504 347 538 346 521 b 348 456 346 487 347 471 l 650 456 l 599 349 l 364 349 b 596 151 400 215 485 151 b 792 225 683 151 749 191 l 862 78 b 596 -14 792 17 697 -14 b 180 349 386 -14 228 119 l 38 349 l 77 456 l 166 456 b 164 504 165 472 164 488 b 166 554 164 521 165 538 l 38 554 l 77 659 l 180 659 b 596 1024 228 890 386 1024 b 865 928 701 1024 792 989 l 796 781 b 596 859 749 819 682 859 b 364 659 485 859 400 794 l 741 659 "},"&":{"ha":920,"x_min":0,"x_max":0,"o":"m 394 -15 b 61 268 187 -15 61 108 b 250 537 61 387 138 460 b 146 773 192 609 146 683 b 411 1022 146 916 252 1022 b 668 793 571 1022 668 916 b 534 563 668 697 618 624 l 470 516 l 654 300 b 697 476 681 350 697 409 l 850 476 b 763 173 850 337 812 239 l 910 0 l 717 0 l 653 74 b 394 -15 582 13 483 -15 m 346 425 l 329 413 b 236 276 262 364 236 311 b 399 132 236 196 300 132 b 555 185 453 132 508 151 m 436 664 b 516 785 489 698 516 734 b 414 876 516 829 477 876 b 306 770 349 876 306 825 b 379 625 306 724 336 677 "},"!":{"ha":429,"x_min":0,"x_max":0,"o":"m 294 297 l 135 297 l 119 1010 l 310 1010 m 215 -11 b 106 98 154 -11 106 37 b 215 205 106 157 154 205 b 323 98 273 205 323 157 b 215 -11 323 37 273 -11 "},"?":{"ha":756,"x_min":0,"x_max":0,"o":"m 262 310 b 401 596 263 487 314 542 b 507 750 461 634 507 681 b 370 878 507 828 446 878 b 229 741 301 878 234 834 l 54 741 b 371 1024 59 928 199 1024 b 690 753 560 1024 690 919 b 542 511 690 640 633 566 b 427 310 462 462 428 414 l 427 297 l 262 297 m 349 -11 b 240 98 289 -11 240 37 b 349 205 240 157 289 205 b 457 98 407 205 457 157 b 349 -11 457 37 407 -11 "},"(":{"ha":546,"x_min":0,"x_max":0,"o":"m 136 412 b 331 1039 136 658 202 863 l 500 1039 b 322 412 400 908 322 646 b 500 -215 322 178 400 -84 l 331 -215 b 136 412 202 -39 136 166 "},")":{"ha":546,"x_min":0,"x_max":0,"o":"m 410 412 b 215 -215 410 166 345 -39 l 47 -215 b 224 412 147 -85 224 178 b 47 1038 224 646 147 908 l 215 1038 b 410 412 345 863 410 658 "},"[":{"ha":546,"x_min":0,"x_max":0,"o":"m 153 1039 l 509 1039 l 509 902 l 325 902 l 325 -78 l 509 -78 l 509 -215 l 153 -215 "},"]":{"ha":546,"x_min":0,"x_max":0,"o":"m 394 -215 l 37 -215 l 37 -78 l 222 -78 l 222 902 l 37 902 l 37 1038 l 394 1038 "},"{":{"ha":546,"x_min":0,"x_max":0,"o":"m 509 -215 b 196 58 312 -215 196 -165 l 196 183 b 46 329 196 287 158 329 l 46 495 b 196 641 158 495 196 537 l 196 766 b 509 1039 196 989 312 1039 l 509 902 b 366 752 394 902 366 854 l 366 590 b 202 421 366 513 335 448 l 202 402 b 366 234 335 376 366 311 l 366 72 b 509 -78 366 -31 394 -78 l 509 -215 "},"}":{"ha":546,"x_min":0,"x_max":0,"o":"m 37 1038 b 350 766 234 1038 350 988 l 350 641 b 501 495 350 537 389 495 l 501 329 b 350 183 389 329 350 287 l 350 57 b 37 -215 350 -165 234 -215 l 37 -78 b 181 72 153 -78 181 -31 l 181 233 b 344 402 181 310 211 376 l 344 421 b 181 590 211 448 181 513 l 181 752 b 37 902 181 854 153 902 l 37 1038 "},"#":{"ha":893,"x_min":0,"x_max":0,"o":"m 515 260 l 298 260 l 255 0 l 117 0 l 160 260 l 17 260 l 40 399 l 183 399 l 218 612 l 76 612 l 99 750 l 240 750 l 283 1010 l 421 1010 l 378 750 l 595 750 l 638 1010 l 776 1010 l 733 750 l 876 750 l 853 612 l 711 612 l 676 399 l 818 399 l 795 260 l 654 260 l 611 0 l 472 0 m 538 399 l 573 612 l 356 612 l 321 399 "},"/":{"ha":526,"x_min":0,"x_max":0,"o":"m 179 -152 l 22 -152 l 348 1057 l 504 1057 "},"\\":{"ha":526,"x_min":0,"x_max":0,"o":"m 22 1057 l 179 1057 l 504 -152 l 348 -152 "},"-":{"ha":647,"x_min":0,"x_max":0,"o":"m 551 347 l 96 347 l 96 494 l 551 494 "},"'":{"ha":296,"x_min":0,"x_max":0,"o":"m 215 638 l 79 638 l 79 1010 l 215 1010 "},"\"":{"ha":550,"x_min":0,"x_max":0,"o":"m 215 638 l 79 638 l 79 1010 l 215 1010 m 469 638 l 333 638 l 333 1010 l 469 1010 "},",":{"ha":410,"x_min":0,"x_max":0,"o":"m 295 84 b 203 -247 281 -40 226 -184 l 82 -247 b 140 83 97 -187 132 -51 l 144 138 l 301 138 "},".":{"ha":403,"x_min":0,"x_max":0,"o":"m 202 -11 b 93 98 142 -11 93 37 b 202 205 93 157 142 205 b 310 98 260 205 310 157 b 202 -11 310 37 260 -11 "},":":{"ha":403,"x_min":0,"x_max":0,"o":"m 202 -11 b 93 98 142 -11 93 37 b 202 205 93 157 142 205 b 310 98 260 205 310 157 b 202 -11 310 37 260 -11 m 202 530 b 93 639 142 530 93 579 b 202 746 93 698 142 746 b 310 639 260 746 310 698 b 202 530 310 579 260 530 "},";":{"ha":410,"x_min":0,"x_max":0,"o":"m 295 84 b 203 -247 281 -40 226 -184 l 82 -247 b 140 83 97 -187 132 -51 l 144 138 l 301 138 m 219 530 b 111 639 159 530 110 579 b 219 746 110 698 159 746 b 328 639 278 746 327 698 b 219 530 327 579 278 530 "},"<":{"ha":934,"x_min":0,"x_max":0,"o":"m 130 472 l 804 784 l 804 609 l 330 405 l 330 397 l 804 193 l 804 18 l 130 330 "},">":{"ha":934,"x_min":0,"x_max":0,"o":"m 130 18 l 130 193 l 604 397 l 604 405 l 130 609 l 130 784 l 804 472 l 804 330 "},"=":{"ha":934,"x_min":0,"x_max":0,"o":"m 139 319 l 796 319 l 796 167 l 139 167 m 139 635 l 796 635 l 796 482 l 139 482 "},"+":{"ha":934,"x_min":0,"x_max":0,"o":"m 390 324 l 126 324 l 126 478 l 390 478 l 390 742 l 545 742 l 545 478 l 808 478 l 808 324 l 545 324 l 545 60 l 390 60 "},"~":{"ha":934,"x_min":0,"x_max":0,"o":"m 109 282 b 316 550 104 461 193 550 b 502 463 380 550 430 526 b 600 409 543 427 565 409 b 683 526 650 409 685 447 l 826 526 b 618 257 831 347 739 257 b 432 345 552 257 502 284 b 334 398 388 383 369 398 b 252 282 286 398 250 365 l 109 282 "},"_":{"ha":650,"x_min":0,"x_max":0,"o":"m 652 -143 l -1 -143 l -1 0 l 652 0 "},"^":{"ha":668,"x_min":0,"x_max":0,"o":"m 255 985 l 413 985 l 619 552 l 474 552 l 338 856 l 330 856 l 195 552 l 49 552 "},"*":{"ha":755,"x_min":0,"x_max":0,"o":"m 328 642 l 161 532 l 101 636 l 280 726 l 101 816 l 161 920 l 328 810 l 317 1010 l 437 1010 l 426 810 l 594 920 l 654 816 l 474 726 l 654 636 l 594 532 l 426 642 l 437 442 l 317 442 "},"°":{"ha":636,"x_min":0,"x_max":0,"o":"m 318 543 b 81 780 187 543 81 649 b 318 1017 81 911 187 1017 b 555 780 449 1017 555 911 b 318 543 555 649 449 543 m 318 669 b 429 780 379 669 429 719 b 318 891 429 841 379 891 b 207 780 256 891 207 841 b 318 669 207 719 256 669 "},"§":{"ha":804,"x_min":0,"x_max":0,"o":"m 510 763 b 397 872 510 826 473 872 b 289 790 332 872 289 837 b 387 679 289 739 345 699 l 577 583 b 728 359 628 557 737 496 b 600 208 724 280 654 225 l 598 206 b 678 31 651 160 677 102 b 400 -204 677 -121 553 -204 b 105 61 226 -204 105 -102 l 267 61 b 401 -52 266 -13 320 -54 b 515 31 459 -51 515 -26 b 419 142 515 90 459 120 l 229 236 b 76 462 176 261 69 325 b 206 614 81 541 145 596 l 206 616 b 127 790 159 662 127 718 b 397 1024 127 925 239 1024 b 671 763 562 1024 671 914 m 577 352 b 493 454 580 394 546 429 l 319 542 b 227 469 281 561 230 524 b 312 365 223 425 258 391 l 483 281 b 577 352 517 263 574 297 "},"%":{"ha":1172,"x_min":0,"x_max":0,"o":"m 630 243 b 843 460 630 360 707 460 b 1057 243 983 460 1057 361 l 1057 189 b 843 -28 1057 72 981 -28 b 630 189 705 -28 630 72 m 116 821 b 330 1038 116 939 194 1038 b 544 821 470 1038 544 939 l 544 767 b 330 551 544 649 468 551 b 116 767 191 551 116 650 m 867 1010 l 990 1010 l 296 0 l 172 0 m 759 189 b 843 85 759 138 780 85 b 927 189 907 85 927 137 l 927 243 b 843 348 927 295 908 348 b 759 243 781 348 759 295 m 246 767 b 330 663 246 715 267 663 b 414 767 394 663 414 715 l 414 821 b 330 926 414 873 396 926 b 246 821 268 926 246 872 "},"`":{"ha":690,"x_min":0,"x_max":0,"o":"m 203 1083 l 378 1083 l 488 857 l 354 857 "}}}
